<?xml version="1.0" encoding="utf-8"?><svg xmlns="http://www.w3.org/2000/svg" xmlns:xlink="http://www.w3.org/1999/xlink" width="76" height="76" preserveAspectRatio="xMidYMid" viewBox="0 0 76 76" style="display:block;background-repeat-y:initial;background-repeat-x:initial;background-color:rgb(241, 242, 243);animation-play-state:paused" ><g transform="scale(0.30000000000000004)" data-fill="c1" style="transform:matrix(0.3, 0, 0, 0.3, 0, 0);fill:rgb(95, 42, 98);animation-play-state:paused" ><g data-idx="0" data-dup="" dx="-128" dy="-128" style="transform-origin:64.0005px 64px;transform:matrix(1, 0, 0, 1, 0, 0);animation-timing-function:linear;animation-play-state:paused;animation-name:beat-3b63d93e-db81-42db-b6a4-dcf862a66a10;animation-iteration-count:infinite;animation-fill-mode:forwards;animation-duration:1s" ><g transform="translate(-128,-128)" style="transform:matrix(1, 0, 0, 1, -128, -128);animation-play-state:paused" ><path fill="none" stroke="#000000" stroke-width="8" stroke-linecap="round" stroke-linejoin="round" stroke-miterlimit="10" d="
	M160,187c6.398,0,6.398,10,12.795,10c6.4,0,6.4-10,12.8-10c6.398,0,6.398,10,12.796,10c6.402,0,6.402-10,12.805-10
	c6.402,0,6.402,10,12.805,10" data-stroke="c1" style="stroke:rgb(95, 42, 98);animation-play-state:paused" ></path></g></g>
<g data-idx="0" data-dup="" dx="128" dy="-128" style="transform-origin:320.001px 64px;transform:matrix(1, 0, 0, 1, 0, 0);animation-timing-function:linear;animation-play-state:paused;animation-name:beat-3b63d93e-db81-42db-b6a4-dcf862a66a10;animation-iteration-count:infinite;animation-fill-mode:forwards;animation-duration:1s" ><g transform="translate(128,-128)" style="transform:matrix(1, 0, 0, 1, 128, -128);animation-play-state:paused" ><path fill="none" stroke="#000000" stroke-width="8" stroke-linecap="round" stroke-linejoin="round" stroke-miterlimit="10" d="
	M160,187c6.398,0,6.398,10,12.795,10c6.4,0,6.4-10,12.8-10c6.398,0,6.398,10,12.796,10c6.402,0,6.402-10,12.805-10
	c6.402,0,6.402,10,12.805,10" data-stroke="c1" style="stroke:rgb(95, 42, 98);animation-play-state:paused" ></path></g></g>
<g data-idx="1" data-dup="" dx="-128" dy="-128" style="transform-origin:-64px -64px;transform:matrix(1, 0, 0, 1, 0, 0);animation-timing-function:linear;animation-play-state:paused;animation-name:beat-3b63d93e-db81-42db-b6a4-dcf862a66a10;animation-iteration-count:infinite;animation-fill-mode:forwards;animation-duration:1s" ><g transform="translate(-128,-128)" style="transform:matrix(1, 0, 0, 1, -128, -128);animation-play-state:paused" ><path fill="none" stroke="#777777" stroke-width="8" stroke-linecap="round" stroke-linejoin="round" stroke-miterlimit="10" d="
	M32,59c6.398,0,6.398,10,12.795,10c6.4,0,6.4-10,12.8-10c6.398,0,6.398,10,12.796,10c6.402,0,6.402-10,12.805-10
	C89.598,59,89.598,69,96,69" data-stroke="c2" style="stroke:rgb(169, 118, 195);animation-play-state:paused" ></path></g></g>
<g data-idx="1" data-dup="" dx="128" dy="-128" style="transform-origin:192px -64px;transform:matrix(1, 0, 0, 1, 0, 0);animation-timing-function:linear;animation-play-state:paused;animation-name:beat-3b63d93e-db81-42db-b6a4-dcf862a66a10;animation-iteration-count:infinite;animation-fill-mode:forwards;animation-duration:1s" ><g transform="translate(128,-128)" style="transform:matrix(1, 0, 0, 1, 128, -128);animation-play-state:paused" ><path fill="none" stroke="#777777" stroke-width="8" stroke-linecap="round" stroke-linejoin="round" stroke-miterlimit="10" d="
	M32,59c6.398,0,6.398,10,12.795,10c6.4,0,6.4-10,12.8-10c6.398,0,6.398,10,12.796,10c6.402,0,6.402-10,12.805-10
	C89.598,59,89.598,69,96,69" data-stroke="c2" style="stroke:rgb(169, 118, 195);animation-play-state:paused" ></path></g></g>
<g data-idx="0" data-dup="" dx="-128" dy="128" style="transform-origin:64.0005px 320px;transform:matrix(1, 0, 0, 1, 0, 0);animation-timing-function:linear;animation-play-state:paused;animation-name:beat-3b63d93e-db81-42db-b6a4-dcf862a66a10;animation-iteration-count:infinite;animation-fill-mode:forwards;animation-duration:1s" ><g transform="translate(-128,128)" style="transform:matrix(1, 0, 0, 1, -128, 128);animation-play-state:paused" ><path fill="none" stroke="#000000" stroke-width="8" stroke-linecap="round" stroke-linejoin="round" stroke-miterlimit="10" d="
	M160,187c6.398,0,6.398,10,12.795,10c6.4,0,6.4-10,12.8-10c6.398,0,6.398,10,12.796,10c6.402,0,6.402-10,12.805-10
	c6.402,0,6.402,10,12.805,10" data-stroke="c1" style="stroke:rgb(95, 42, 98);animation-play-state:paused" ></path></g></g>
<g data-idx="0" data-dup="" dx="128" dy="128" style="transform-origin:320.001px 320px;transform:matrix(1, 0, 0, 1, 0, 0);animation-timing-function:linear;animation-play-state:paused;animation-name:beat-3b63d93e-db81-42db-b6a4-dcf862a66a10;animation-iteration-count:infinite;animation-fill-mode:forwards;animation-duration:1s" ><g transform="translate(128,128)" style="transform:matrix(1, 0, 0, 1, 128, 128);animation-play-state:paused" ><path fill="none" stroke="#000000" stroke-width="8" stroke-linecap="round" stroke-linejoin="round" stroke-miterlimit="10" d="
	M160,187c6.398,0,6.398,10,12.795,10c6.4,0,6.4-10,12.8-10c6.398,0,6.398,10,12.796,10c6.402,0,6.402-10,12.805-10
	c6.402,0,6.402,10,12.805,10" data-stroke="c1" style="stroke:rgb(95, 42, 98);animation-play-state:paused" ></path></g></g>
<g data-idx="1" data-dup="" dx="-128" dy="128" style="transform-origin:-64px 192px;transform:matrix(1, 0, 0, 1, 0, 0);animation-timing-function:linear;animation-play-state:paused;animation-name:beat-3b63d93e-db81-42db-b6a4-dcf862a66a10;animation-iteration-count:infinite;animation-fill-mode:forwards;animation-duration:1s" ><g transform="translate(-128,128)" style="transform:matrix(1, 0, 0, 1, -128, 128);animation-play-state:paused" ><path fill="none" stroke="#777777" stroke-width="8" stroke-linecap="round" stroke-linejoin="round" stroke-miterlimit="10" d="
	M32,59c6.398,0,6.398,10,12.795,10c6.4,0,6.4-10,12.8-10c6.398,0,6.398,10,12.796,10c6.402,0,6.402-10,12.805-10
	C89.598,59,89.598,69,96,69" data-stroke="c2" style="stroke:rgb(169, 118, 195);animation-play-state:paused" ></path></g></g>
<g data-idx="1" data-dup="" dx="128" dy="128" style="transform-origin:192px 192px;transform:matrix(1, 0, 0, 1, 0, 0);animation-timing-function:linear;animation-play-state:paused;animation-name:beat-3b63d93e-db81-42db-b6a4-dcf862a66a10;animation-iteration-count:infinite;animation-fill-mode:forwards;animation-duration:1s" ><g transform="translate(128,128)" style="transform:matrix(1, 0, 0, 1, 128, 128);animation-play-state:paused" ><path fill="none" stroke="#777777" stroke-width="8" stroke-linecap="round" stroke-linejoin="round" stroke-miterlimit="10" d="
	M32,59c6.398,0,6.398,10,12.795,10c6.4,0,6.4-10,12.8-10c6.398,0,6.398,10,12.796,10c6.402,0,6.402-10,12.805-10
	C89.598,59,89.598,69,96,69" data-stroke="c2" style="stroke:rgb(169, 118, 195);animation-play-state:paused" ></path></g></g></g></svg>