<?xml version="1.0" encoding="utf-8"?><svg xmlns="http://www.w3.org/2000/svg" xmlns:xlink="http://www.w3.org/1999/xlink" width="76" height="76" preserveAspectRatio="xMidYMid" viewBox="0 0 76 76" style="display:block;background-repeat-y:initial;background-repeat-x:initial;background-color:rgb(138, 1, 120);animation-play-state:paused" ><g transform="scale(0.30000000000000004)" style="transform:matrix(0.3, 0, 0, 0.3, 0, 0);animation-play-state:paused" ><defs style="animation-play-state:paused" ><g id="stripe-0.8388262141418863" style="animation-play-state:paused" ><path d="M 128 -128 L 213.33333333333331 -128 L -128 213.33333333333331 L -128 128 Z" fill="#8a0178" style="animation-play-state:paused" ></path>
<path d="M 384 -128 L 384 -42.66666666666667 L -42.66666666666667 384 L -128 384 Z" fill="#8a0178" style="animation-play-state:paused" ></path>
<path d="M 213.33333333333331 -128 L 298.66666666666663 -128 L -128 298.66666666666663 L -128 213.33333333333331 Z" fill="#775cbc" style="animation-play-state:paused" ></path>
<path d="M 384 -42.66666666666667 L 384 42.66666666666666 L 42.66666666666666 384 L -42.66666666666667 384 Z" fill="#775cbc" style="animation-play-state:paused" ></path>
<path d="M 298.66666666666663 -128 L 384 -128 L -128 384 L -128 298.66666666666663 Z" fill="#8ab7e8" style="animation-play-state:paused" ></path>
<path d="M 384 42.66666666666666 L 384 128 L 128 384 L 42.66666666666666 384 Z" fill="#8ab7e8" style="animation-play-state:paused" ></path></g></defs>


<g transform="matrix(1,0,0,1,0,0)" style="transform:matrix(1, 0, 0, 1, 0, 0);animation-play-state:paused" ><use xlink:href="#stripe-0.8388262141418863" x="-256" y="0" style="animation-play-state:paused" ></use>

  
<use xlink:href="#stripe-0.8388262141418863" x="0" y="0" style="animation-play-state:paused" ></use></g></g></svg>